<svg width="325px" height="165px" id="Layer_1" data-name="Layer 1" xmlns="http://www.w3.org/2000/svg" viewBox="0 0 562.84 251.9"><defs><style>.cls-1{fill:#403a60;}</style></defs><title>Corporate Logo</title><path class="cls-1" d="M48.35,135.08,32,192.08H22.15L0,122.82H12.65l18.79,58.63,16.7-58.63h9l18.69,58.63,16.9-58.63h3.86L76.52,192H66.63Z"/><path class="cls-1" d="M151.27,170.48h-30l-8,21.55h-4.06l25.91-69.21H145.6L172.68,192h-13Zm-15.42-39.65L122.4,167.21H150Z"/><path class="cls-1" d="M205.55,159.8V192H193.39V122.82h21.84c19.78,0,30,6.13,30,18.29,0,10-8.7,15.62-20.37,16.81v.2c9.3,1,15.92,4.74,18.39,15.12L247.7,192H235.15l-4.55-19.87c-2.37-10.19-7-12.36-15.42-12.36Zm0-3.27H215c12.16,0,17.4-6.22,17.4-15.32s-5.34-15.13-17.3-15.13h-9.59Z"/><path class="cls-1" d="M312.52,135.08l-16.32,57h-9.88l-22.15-69.21h12.66l18.78,58.63,16.71-58.63h9L340,181.45l16.91-58.63h3.85L340.69,192h-9.88Z"/><path class="cls-1" d="M381.43,122.82h12.16V192H381.43Z"/><path class="cls-1" d="M417.11,156.92c0-22.24,15.63-35.59,33.82-35.59,16,0,27.88,8.4,29.76,22.24H469.51c-1.38-12.45-7.9-19.17-18.58-19.17-13.75,0-20.37,11.66-20.37,32.52,0,21.06,6.43,33,20.37,33,10.57,0,17.2-7.12,18.68-19.18h11.17c-2,13.74-13.54,22.25-29.85,22.25C432,193,417.11,179.27,417.11,156.92Z"/><path class="cls-1" d="M527.45,155.25l-11.07,10.88V192H504.22V122.82h12.16v38.26l38.75-38.26h5.34l-24.12,23.73L562.84,192h-14Z"/><path class="cls-1" d="M282,4.31h-.63a2.3,2.3,0,0,0-.72.26,3.8,3.8,0,0,0-1.26,2.57c-.38,2.1,1,7,2.25,10.8l.12-.37.1.35c1.24-3.8,2.63-8.69,2.25-10.79a3.79,3.79,0,0,0-1.26-2.56,2,2,0,0,0-.85-.26m-41.14,1.2a3.81,3.81,0,0,0-2.6,2.09c-1.35,2.52,0,5.9,1.44,8.88.63,1.31,1.67,3.09,2.79,5v-1h0v-7l.06-1.64c.09-2.09.2-4.43-.73-5.7-.49-.65-.86-.65-1-.65m80.14,15v1c1.13-1.93,2.16-3.71,2.8-5,1.47-3,2.79-6.36,1.43-8.88a3.81,3.81,0,0,0-2.6-2.09c-.13,0-.5,0-1,.65-.94,1.27-.82,3.61-.73,5.7l.06,1.64v7ZM303.32,53.22a65.62,65.62,0,0,0,13.3,8.41V38.71a69.89,69.89,0,0,1-13.28,14.51M246.84,39.1V61.63a64.77,64.77,0,0,0,12.8-8,55.78,55.78,0,0,1-12.78-14.52m19.76,14.26c3.62,2.51,7.28,4.59,10.84,6.62,1.5.85,3,1.69,4.36,2.53a113.21,113.21,0,0,0,14.73-9.47A62.87,62.87,0,0,1,282,32l-.18.59-.18-.59a62.81,62.81,0,0,1-14.95,21.4m54.43,14.67-2.92-1a63.4,63.4,0,0,1-18.25-11,110.2,110.2,0,0,1-17.16,11l-1.08.53-1-.63c-1.69-1-3.48-2-5.33-3.09a134.72,134.72,0,0,1-12-7.45,63.69,63.69,0,0,1-17.87,10.67l-2.92,1V30.56c-1.06-2.1-2.45-4.5-3.73-6.72s-2.31-4-3-5.39c-1.18-2.41-4-8.06-1.35-12.91,1.18-2.19,3.64-4.39,6.46-4.39a5.6,5.6,0,0,1,4.52,2.42c1.87,2.51,1.72,5.85,1.59,8.52V29.6c.15.3.28.6.4.88a51.35,51.35,0,0,0,15.76,20.35,58.69,58.69,0,0,0,16.43-25.68c-.1-.29-.28-.82-.53-1.5-2.4-6.75-4.53-13.51-3.86-17.21.5-2.74,1.71-4.7,3.5-5.67A6.79,6.79,0,0,1,281.45,0h.89a6.62,6.62,0,0,1,2.79.77c1.8,1,3,2.93,3.51,5.66.66,3.69-1.45,10.42-3.83,17.15-.26.71-.45,1.26-.55,1.57a58.57,58.57,0,0,0,16,25.26c7.81-6.52,13.25-13.21,16.19-19.93.13-.28.26-.58.41-.88,0-8,0-14.64-.05-15.95V12.14c-.13-2.67-.29-6,1.59-8.52a5.59,5.59,0,0,1,4.51-2.42c2.83,0,5.29,2.2,6.46,4.39,2.62,4.85-.16,10.5-1.34,12.91-.69,1.39-1.79,3.31-3,5.39s-2.66,4.62-3.72,6.72Z"/><path class="cls-1" d="M72.42,230.81h2.35v9.24h12v-9.24h2.35V251.6H86.77v-9.36h-12v9.36H72.42Z"/><path class="cls-1" d="M98.08,241.27v-.06a10.6,10.6,0,1,1,21.2-.06v.06a10.6,10.6,0,0,1-21.2.06Zm18.77,0v-.06a8.26,8.26,0,0,0-7.94-8.58h-.26c-4.75,0-8.13,3.8-8.13,8.53v.06a8.25,8.25,0,0,0,7.93,8.57h.26C113.46,249.79,116.85,246,116.85,241.27Z"/><path class="cls-1" d="M132.33,233h-7v-2.17h16.33V233h-7V251.6h-2.37Z"/><path class="cls-1" d="M150.09,230.81h15v2.11H152.41V240h11.35v2.14H152.41v7.27h12.83v2.14H150.07Z"/><path class="cls-1" d="M174,230.81h2.34v18.62H188v2.17H174Z"/><path class="cls-1" d="M195,248.57l1.46-1.72a9.92,9.92,0,0,0,7.12,2.94c2.8,0,4.64-1.49,4.64-3.54v-.06c0-1.93-1-3-5.41-4-4.78-1-7-2.58-7-6v-.06c0-3.27,2.89-5.67,6.83-5.67A10.83,10.83,0,0,1,210,233l-1.37,1.81a9.18,9.18,0,0,0-6-2.26c-2.71,0-4.43,1.49-4.43,3.36V236c0,2,1.07,3.06,5.64,4s6.77,2.7,6.77,5.88v.06c0,3.56-3,5.88-7.09,5.88A12.18,12.18,0,0,1,195,248.57Z"/><path class="cls-1" d="M240,230.66h2.19l9.48,20.94h-2.53l-2.43-5.49H235.39l-2.46,5.49h-2.41ZM245.79,244l-4.72-10.57L236.31,244Z"/><path class="cls-1" d="M259.8,230.81H262l13.09,16.66V230.81h2.29V251.6h-1.87l-13.42-17v17H259.8Z"/><path class="cls-1" d="M287.27,230.81h7.22c6.53,0,11,4.49,11,10.34v.06c0,5.85-4.51,10.39-11,10.39h-7.22Zm2.35,2.17v16.45h4.87c5.25,0,8.61-3.56,8.61-8.16v-.06c0-4.61-3.36-8.23-8.61-8.23Z"/><path class="cls-1" d="M327.42,230.81h8.94a8.18,8.18,0,0,1,5.91,2.08,5.75,5.75,0,0,1,1.6,4.1v.06c0,3.44-2.37,5.46-5.64,6.06l6.39,8.49h-2.88l-6-8.08H329.8v8.08h-2.35Zm8.73,10.6c3.12,0,5.35-1.6,5.35-4.27v-.06c0-2.56-2-4.1-5.32-4.1h-6.41v8.43Z"/><path class="cls-1" d="M352.91,230.81h15v2.11H355.23V240h11.35v2.14H355.23v7.27h12.83v2.14H352.89Z"/><path class="cls-1" d="M375.45,248.57l1.45-1.72a9.92,9.92,0,0,0,7.13,2.94c2.79,0,4.63-1.49,4.63-3.54v-.06c0-1.93-1-3-5.4-4-4.78-1-7-2.58-7-6v-.06c0-3.27,2.88-5.67,6.83-5.67a10.83,10.83,0,0,1,7.3,2.55L389,234.82a9.18,9.18,0,0,0-6-2.26c-2.7,0-4.42,1.49-4.42,3.36V236c0,2,1.07,3.06,5.64,4s6.77,2.7,6.77,5.88v.06c0,3.56-3,5.88-7.1,5.88A12.13,12.13,0,0,1,375.45,248.57Z"/><path class="cls-1" d="M398.91,241.27v-.06a10.6,10.6,0,1,1,21.2-.06v.06a10.6,10.6,0,0,1-21.2.06Zm18.77,0v-.06a8.26,8.26,0,0,0-7.94-8.58h-.26c-4.75,0-8.13,3.8-8.13,8.53v.06a8.25,8.25,0,0,0,7.93,8.57h.26C414.29,249.79,417.68,246,417.68,241.27Z"/><path class="cls-1" d="M429.09,230.81H438a8.16,8.16,0,0,1,5.91,2.08,5.74,5.74,0,0,1,1.61,4.1v.06c0,3.44-2.38,5.46-5.64,6.06l6.38,8.49h-2.88l-6-8.08h-5.94v8.08H429.1Zm8.73,10.6c3.12,0,5.34-1.6,5.34-4.27v-.06c0-2.56-2-4.1-5.31-4.1h-6.42v8.43Z"/><path class="cls-1" d="M459.85,233h-7v-2.17h16.33V233h-7V251.6H459.8Z"/><path class="cls-1" d="M475.81,248.57l1.45-1.72a9.92,9.92,0,0,0,7.13,2.94c2.79,0,4.63-1.49,4.63-3.54v-.06c0-1.93-1-3-5.41-4-4.78-1-7-2.58-7-6v-.06c0-3.27,2.88-5.67,6.83-5.67a10.88,10.88,0,0,1,7.3,2.55l-1.34,1.91a9.18,9.18,0,0,0-6-2.26c-2.71,0-4.43,1.49-4.43,3.36v.06c0,2,1.07,3.06,5.64,4s6.77,2.7,6.77,5.88V246c0,3.56-3,5.88-7.09,5.88A12.16,12.16,0,0,1,475.81,248.57Z"/></svg>